<svg width="40" height="37" viewBox="0 0 40 37" fill="none" xmlns="http://www.w3.org/2000/svg">
<g id="Vector" filter="url(#filter0_d_54_7)">
<path d="M5.33333 0C4.59444 0 4 0.594444 4 1.33333C4 2.07222 4.59444 2.66667 5.33333 2.66667H7.86111C8.07222 2.66667 8.25556 2.81667 8.3 3.02778L11.1667 18.0833C11.5278 19.9722 13.1778 21.3333 15.0944 21.3333H31.1111C31.85 21.3333 32.4444 20.7389 32.4444 20C32.4444 19.2611 31.85 18.6667 31.1111 18.6667H15.0944C14.4556 18.6667 13.9056 18.2111 13.7833 17.5833L13.4833 16H29.5111C31.3222 16 32.9056 14.7889 33.3722 13.0389L35.65 4.57778C36.0333 3.16667 34.9667 1.77778 33.5056 1.77778H24V7.45L25.2778 6.17222C25.8 5.65 26.6444 5.65 27.1611 6.17222C27.6778 6.69444 27.6833 7.53889 27.1611 8.05556L23.6056 11.6111C23.0833 12.1333 22.2389 12.1333 21.7222 11.6111L18.1667 8.05556C17.6444 7.53333 17.6444 6.68889 18.1667 6.17222C18.6889 5.65556 19.5333 5.65 20.05 6.17222L21.3278 7.45V1.77778H10.6722C10.1667 0.711111 9.08889 0 7.86111 0H5.33333ZM13.7778 28.4444C14.485 28.4444 15.1633 28.1635 15.6634 27.6634C16.1635 27.1633 16.4444 26.485 16.4444 25.7778C16.4444 25.0705 16.1635 24.3923 15.6634 23.8922C15.1633 23.3921 14.485 23.1111 13.7778 23.1111C13.0705 23.1111 12.3923 23.3921 11.8922 23.8922C11.3921 24.3923 11.1111 25.0705 11.1111 25.7778C11.1111 26.485 11.3921 27.1633 11.8922 27.6634C12.3923 28.1635 13.0705 28.4444 13.7778 28.4444ZM32.4444 25.7778C32.4444 25.0705 32.1635 24.3923 31.6634 23.8922C31.1633 23.3921 30.485 23.1111 29.7778 23.1111C29.0705 23.1111 28.3923 23.3921 27.8922 23.8922C27.3921 24.3923 27.1111 25.0705 27.1111 25.7778C27.1111 26.485 27.3921 27.1633 27.8922 27.6634C28.3923 28.1635 29.0705 28.4444 29.7778 28.4444C30.485 28.4444 31.1633 28.1635 31.6634 27.6634C32.1635 27.1633 32.4444 26.485 32.4444 25.7778Z" fill="#7A7A7A"/>
</g>
<defs>
<filter id="filter0_d_54_7" x="0" y="0" width="39.7286" height="36.4445" filterUnits="userSpaceOnUse" color-interpolation-filters="sRGB">
<feFlood flood-opacity="0" result="BackgroundImageFix"/>
<feColorMatrix in="SourceAlpha" type="matrix" values="0 0 0 0 0 0 0 0 0 0 0 0 0 0 0 0 0 0 127 0" result="hardAlpha"/>
<feOffset dy="4"/>
<feGaussianBlur stdDeviation="2"/>
<feComposite in2="hardAlpha" operator="out"/>
<feColorMatrix type="matrix" values="0 0 0 0 0 0 0 0 0 0 0 0 0 0 0 0 0 0 0.25 0"/>
<feBlend mode="normal" in2="BackgroundImageFix" result="effect1_dropShadow_54_7"/>
<feBlend mode="normal" in="SourceGraphic" in2="effect1_dropShadow_54_7" result="shape"/>
</filter>
</defs>
</svg>
