<svg width="40" height="36" viewBox="0 0 40 36" fill="none" xmlns="http://www.w3.org/2000/svg">
<g id="Vector" filter="url(#filter0_d_54_8)">
<path d="M6.975 16.1406L18.2688 26.6843C18.7375 27.1218 19.3562 27.3656 20 27.3656C20.6437 27.3656 21.2625 27.1218 21.7313 26.6843L33.025 16.1406C34.925 14.3718 36 11.8906 36 9.29682V8.93432C36 4.56557 32.8438 0.840569 28.5375 0.121819C25.6875 -0.353181 22.7875 0.578069 20.75 2.61557L20 3.36557L19.25 2.61557C17.2125 0.578069 14.3125 -0.353181 11.4625 0.121819C7.15625 0.840569 4 4.56557 4 8.93432V9.29682C4 11.8906 5.075 14.3718 6.975 16.1406Z" fill="#7A7A7A"/>
</g>
<defs>
<filter id="filter0_d_54_8" x="0" y="0" width="40" height="35.3656" filterUnits="userSpaceOnUse" color-interpolation-filters="sRGB">
<feFlood flood-opacity="0" result="BackgroundImageFix"/>
<feColorMatrix in="SourceAlpha" type="matrix" values="0 0 0 0 0 0 0 0 0 0 0 0 0 0 0 0 0 0 127 0" result="hardAlpha"/>
<feOffset dy="4"/>
<feGaussianBlur stdDeviation="2"/>
<feComposite in2="hardAlpha" operator="out"/>
<feColorMatrix type="matrix" values="0 0 0 0 0 0 0 0 0 0 0 0 0 0 0 0 0 0 0.25 0"/>
<feBlend mode="normal" in2="BackgroundImageFix" result="effect1_dropShadow_54_8"/>
<feBlend mode="normal" in="SourceGraphic" in2="effect1_dropShadow_54_8" result="shape"/>
</filter>
</defs>
</svg>
